<?xml version="1.0" encoding="UTF-8" standalone="no"?><!DOCTYPE svg PUBLIC "-//W3C//DTD SVG 1.1//EN" "http://www.w3.org/Graphics/SVG/1.1/DTD/svg11.dtd"><svg width="100%" height="100%" viewBox="0 0 1000 1000" version="1.1" xmlns="http://www.w3.org/2000/svg" xmlns:xlink="http://www.w3.org/1999/xlink" xml:space="preserve" xmlns:serif="http://www.serif.com/" style="fill-rule:evenodd;clip-rule:evenodd;stroke-linejoin:round;stroke-miterlimit:1.41421;"><g><g id="E"><clipPath id="_clip1"><path d="M656.487,574.943l0,173.777l361.853,0l0,-173.777l-361.853,0Z"/></clipPath><g clip-path="url(#_clip1)"><path d="M999.974,746.609l-514.498,0l0,-179.166l514.498,0l0,179.166Zm-499.498,-164.166l0,149.166l484.498,0l0,-149.166l-484.498,0Z"/></g><clipPath id="_clip2"><path d="M656.487,237.4l0,173.376l360.121,0l0,-173.376l-360.121,0Z"/></clipPath><g clip-path="url(#_clip2)"><path d="M999.968,418.276l-514.489,0l0,-179.167l514.489,0l0,179.167Zm-499.489,-164.167l0,149.167l484.489,0l0,-149.167l-484.489,0Z"/></g><clipPath id="_clip3"><path d="M656.487,405.335l0,173.96l361.007,0l0,-173.96l-361.007,0Z"/></clipPath><g clip-path="url(#_clip3)"><path d="M999.99,582.443l-514.513,0l0,-179.167l514.513,0l0,179.167Zm-499.513,-164.167l0,149.167l484.513,0l0,-149.167l-484.513,0Z"/></g><clipPath id="_clip4"><rect x="494.341" y="237.4" width="162.536" height="511.332"/></clipPath><g clip-path="url(#_clip4)"><path d="M676.226,746.609l-177.284,0l0,-507.5l177.284,0l0,507.5Zm-162.284,-492.5l0,477.5l147.284,0l0,-477.5l-147.284,0Z"/></g></g><g id="M"><clipPath id="_clip5"><rect x="-20.746" y="398.987" width="190.519" height="366.052"/></clipPath><g clip-path="url(#_clip5)"><path d="M177.274,746.373l-177.284,0l0,-520.294l177.284,0l0,520.294Zm-162.284,-505.294l0,490.294l147.284,0l0,-490.294l-147.284,0Z"/></g><clipPath id="_clip6"><rect x="332.058" y="398.987" width="184.469" height="364.3"/></clipPath><g clip-path="url(#_clip6)"><path d="M501.841,746.367l-177.283,0l0,-520.284l177.283,0l0,520.284Zm-162.283,-505.284l0,490.284l147.283,0l0,-490.284l-147.283,0Z"/></g><clipPath id="_clip7"><rect x="165.471" y="398.987" width="171.965" height="365.196"/></clipPath><g clip-path="url(#_clip7)"><path d="M339.558,746.389l-177.284,0l0,-520.309l177.284,0l0,520.309Zm-162.284,-505.309l0,490.309l147.284,0l0,-490.309l-147.284,0Z"/></g><clipPath id="_clip8"><path d="M516.527,400.293l0,-165.332l-545.34,0l0,165.332l545.34,0Z"/></clipPath><g clip-path="url(#_clip8)"><path d="M501.841,418.869l-501.851,0l0,-179.167l501.851,0l0,179.167Zm-486.851,-164.167l0,149.167l471.851,0l0,-149.167l-471.851,0Z"/></g></g></g></svg>