<?xml version="1.0" standalone="no"?>
<!DOCTYPE svg PUBLIC "-//W3C//DTD SVG 20010904//EN"
 "http://www.w3.org/TR/2001/REC-SVG-20010904/DTD/svg10.dtd">
<svg version="1.0" xmlns="http://www.w3.org/2000/svg"
 width="1000.000000pt" height="1000.000000pt" viewBox="0 0 1000.000000 1000.000000"
 preserveAspectRatio="xMidYMid meet">
<metadata>
Created by potrace 1.11, written by Peter Selinger 2001-2013
</metadata>
<g transform="translate(0.000000,1000.000000) scale(0.100000,-0.100000)"
fill="#000000" stroke="none">
<path d="M2560 7470 l-2435 -5 -3 -2466 -2 -2466 3652 -6 c2009 -4 4202 -7
4874 -7 l1221 0 6 1244 c4 684 4 1800 0 2480 l-6 1236 -2436 -2 c-1340 -2
-3532 -5 -4871 -8z m2310 -2470 l0 -2320 -715 0 -715 0 0 1614 c0 1496 -1
1614 -17 1620 -9 4 -43 4 -75 0 l-58 -7 0 -1613 0 -1614 -715 0 -715 0 0 1614
0 1613 -52 6 c-29 4 -63 4 -75 1 l-23 -6 0 -1614 0 -1614 -715 0 -715 0 0
2320 0 2320 2295 0 2295 0 0 -2320z m4850 1600 l0 -720 -1594 0 c-1461 0
-1594 -1 -1600 -16 -4 -9 -3 -45 0 -80 l7 -64 1593 0 1594 0 0 -720 0 -720
-1594 0 -1593 0 -6 -58 c-4 -32 -4 -68 0 -80 l5 -22 1594 0 1594 0 0 -720 0
-720 -2290 0 -2290 0 0 2320 0 2320 2290 0 2290 0 0 -720z"/>
</g>
</svg>
